<mxfile host="app.diagrams.net" modified="2023-09-18T04:48:21.129Z" agent="Mozilla/5.0 (Macintosh; Intel Mac OS X 10_15_7) AppleWebKit/537.36 (KHTML, like Gecko) Chrome/115.0.0.0 Safari/537.36" version="21.7.5" etag="xpElt7qnZvRwxnOfkZRP" type="github">
  <diagram name="Page-1" id="_UmJ7nJkSWFbZG_ccKpP">
    <mxGraphModel>
      <root>
        <mxCell id="0" />
        <mxCell id="1" parent="0" />
      </root>
    </mxGraphModel>
  </diagram>
</mxfile>
